<svg width="30" height="30" viewBox="0 0 30 30" fill="none" xmlns="http://www.w3.org/2000/svg">
<path d="M15.625 0.9375C7.6825 0.9375 1.25 7.37 1.25 15.3125C1.25 21.6737 5.365 27.0462 11.0787 28.95C11.7975 29.0763 12.0662 28.645 12.0662 28.2675C12.0662 27.9263 12.0487 26.795 12.0487 25.59C8.4375 26.255 7.50375 24.71 7.21625 23.9025C7.05375 23.4888 6.35375 22.2125 5.74125 21.8713C5.23875 21.6012 4.52 20.9363 5.72375 20.9188C6.85625 20.9013 7.665 21.9613 7.935 22.3925C9.22875 24.5675 11.295 23.955 12.1212 23.5775C12.2462 22.6437 12.6238 22.015 13.0375 21.655C9.83875 21.2962 6.4975 20.0562 6.4975 14.5575C6.4975 12.995 7.05375 11.7013 7.97 10.695C7.82625 10.335 7.32375 8.86125 8.11375 6.885C8.11375 6.885 9.3175 6.5075 12.0675 8.35875C13.2175 8.035 14.4388 7.87375 15.6613 7.87375C16.8825 7.87375 18.105 8.03625 19.255 8.35875C22.005 6.49 23.2075 6.885 23.2075 6.885C23.9988 8.86125 23.495 10.335 23.3512 10.695C24.2675 11.7013 24.825 12.9762 24.825 14.5575C24.825 20.0737 21.465 21.295 18.2663 21.655C18.7875 22.105 19.2362 22.9675 19.2362 24.315C19.2362 26.2375 19.2188 27.7825 19.2188 28.2675C19.2188 28.645 19.4888 29.095 20.2063 28.9512C25.8863 27.0462 30 21.655 30 15.3125C30 7.37 23.5675 0.9375 15.625 0.9375Z" fill="#fff"/>
</svg>
